<svg xmlns="http://www.w3.org/2000/svg" width="32" height="32" fill="none"><g fill-rule="evenodd" clip-path="url(#a)" clip-rule="evenodd"><path fill="#CC0839" d="M16 0c8.838 0 16 7.165 16 16s-7.162 16-16 16C7.162 32 0 24.835 0 16S7.162 0 16 0Z"/><path fill="#fff" d="M19.667 4.622a11.975 11.975 0 0 1 7.885 8.293l-2.1.574a9.787 9.787 0 0 0-3.628-5.342v15.707a9.805 9.805 0 0 0 3.571-5.132l2.106.555a11.983 11.983 0 0 1-7.834 8.102V4.615M18.938 4.411v2.257a9.802 9.802 0 0 0-2.919-.447v7.637h2.938v2.174h-2.938v11.053h-.012v.873c-.743 0-1.466-.07-2.17-.197v-2.218h.02V4.239a11.915 11.915 0 0 1 5.087.172M6.45 13.858h4.48V7.63a9.784 9.784 0 0 0-4.48 6.228Zm4.48 2.174H6.215a9.68 9.68 0 0 0 1.792 5.603c-.237.14-1.331.924-1.798 1.237A11.89 11.89 0 0 1 4.038 16c0-5.603 3.853-10.301 9.056-11.602v23.197a11.633 11.633 0 0 1-2.163-.771V16.019v.013Z"/><path fill="#fff" d="M16 2.957c7.2 0 13.043 5.839 13.043 13.042 0 7.203-5.843 13.042-13.043 13.042-7.2 0-13.043-5.839-13.043-13.042C2.957 8.796 8.8 2.957 16 2.957Zm0-2.174C24.403.783 31.213 7.598 31.213 16c0 8.402-6.816 15.216-15.213 15.216C7.603 31.215.787 24.401.787 16 .787 7.598 7.597.783 16 .783Z"/></g><defs><clipPath id="a"><path fill="#fff" d="M0 0h32v32H0z"/></clipPath></defs></svg>