<?xml version="1.0" encoding="UTF-8"?><svg id="Camada_1" xmlns="http://www.w3.org/2000/svg" width="2132.58" height="2200" viewBox="0 0 2132.58 2200"><defs><style>.cls-1{fill:#e20613;}.cls-1,.cls-2{fill-rule:evenodd;}.cls-2{fill:#fff;}</style></defs><path class="cls-2" d="M975.6,2108.11c-14.19-14.37-28.64-28.25-43.55-41.53-14.71-13.11-29.26-25.12-43.67-35.78-13.61-10.07-27.55-19.34-41.93-27.68-14.27-8.26-28.78-15.52-43.62-21.62-30.23-12.43-61.16-20.16-92.27-25.52-32.52-5.6-64.28-8.58-95.72-11.51-38.76-3.63-77.22-7.23-115.5-13.86-39.69-6.88-80.12-17.01-122.34-33.67-19.39-7.65-38.13-16.17-56.17-25.47-18.48-9.53-36.02-19.74-52.56-30.56-58.04-37.96-107.67-85.07-147.94-138.56-41.32-54.89-72.64-116.34-92.93-181.33C7.16,1456.26-2.15,1387.82.42,1318.74c2.5-67.08,16.18-134.63,41.92-199.87,7.75-19.67,16.58-39.11,26.46-58.21,9.81-18.97,20.54-37.41,32.17-55.19,18.53-28.35,38.05-52.28,57.97-73.91,19.45-21.12,39.24-39.96,58.91-58.68,14.03-13.36,28-26.65,40.89-40.39,12.31-13.12,23.76-26.82,33.51-41.69,18.68-28.47,33.47-60.27,43.25-94.13,9.38-32.49,14.24-67.01,13.59-102.46-.61-33.19-6.19-67.58-17.55-102.3-10.71-32.7-26.54-65.57-48.18-97.84l-57.96-86.45L530.52,0l85,49.11c64.38,37.19,135.72,65.27,210.74,84.18,77.27,19.49,158.47,29.23,240.02,29.23s162.75-9.75,240.02-29.23c75.02-18.92,146.37-46.99,210.74-84.18L1602.07,0l305.12,307.61-57.97,86.45c-21.64,32.27-37.47,65.14-48.18,97.85-11.36,34.71-16.94,69.1-17.55,102.29-.65,35.45,4.21,69.97,13.59,102.46,9.78,33.86,24.57,65.66,43.25,94.13,9.75,14.87,21.2,28.56,33.51,41.69,12.89,13.74,26.86,27.03,40.89,40.39,19.66,18.72,39.46,37.56,58.91,58.68,19.92,21.64,39.43,45.57,57.97,73.91,11.63,17.78,22.36,36.22,32.17,55.19,9.88,19.1,18.7,38.55,26.46,58.21,25.74,65.24,39.43,132.8,41.92,199.87,2.57,69.08-6.75,137.52-26.96,202.28-20.29,64.99-51.6,126.44-92.93,181.33-40.28,53.49-89.9,100.61-147.95,138.57-16.54,10.82-34.08,21.03-52.56,30.56-18.04,9.3-36.78,17.82-56.17,25.47-42.23,16.66-82.65,26.79-122.34,33.67-38.28,6.63-76.73,10.23-115.5,13.86-31.44,2.94-63.2,5.92-95.72,11.51-31.11,5.36-62.05,13.09-92.27,25.52-14.84,6.1-29.36,13.35-43.62,21.62-14.39,8.34-28.33,17.61-41.94,27.68-14.41,10.66-28.96,22.66-43.67,35.78-14.9,13.28-29.35,27.15-43.54,41.53l-90.68,91.89-90.71-91.89h0Z"/><path class="cls-1" d="M1066.29,2018.91c-66.37-67.24-134.36-121.79-215.13-155.01-152.23-62.61-286.63-29.85-427.82-85.56-277.52-109.51-383.33-446.86-215.74-703.11,57.98-88.66,135.86-130.18,191.28-214.67,93.55-142.63,115.84-349.74-9.89-537.26l162.74-164.06c301.99,174.48,727.11,174.48,1029.11,0l162.74,164.06c-125.73,187.53-103.44,394.63-9.89,537.26,55.43,84.49,133.3,126.01,191.28,214.67,167.59,256.25,61.78,593.61-215.74,703.11-141.18,55.71-275.59,22.95-427.82,85.56-80.77,33.22-148.76,87.77-215.13,155.01h0ZM1066.29,596.54c264.98,0,479.79,214.81,479.79,479.79s-214.81,479.79-479.79,479.79-479.79-214.81-479.79-479.79,214.81-479.79,479.79-479.79h0ZM1091,1009.16h34.05v120.44h-26.03c1.61-17.87,2.51-35.78,1.98-53.69h-39.25v269.81h35.03v38.66h-118.39v-38.66h35.04v-538.78h-35.04v-38.66h189.99v38.66l-3.25,51.02-19.76-.04-18.03-50.99h-65.59v243.52h37.45c-1.58-13.77-4.21-27.56-8.21-41.3h0ZM1336.73,1128.43c3.13,17.41-1.18,59.01-9.5,74.22-5.63,10.31-11.92,18.95-18.82,25.92v.03l-.07.07-.02-.02c-1.93,1.94-3.97,3.8-6.1,5.55-2.27,1.86-4.44,3.48-6.5,4.82l-.02-.02c-11.51,7.56-24.35,11.33-38.46,11.33v.03c-6.79,0-13.41-.91-19.83-2.72-6.37-1.79-12.52-4.5-18.4-8.1l-.09-.03c-1.44-.89-3.04-1.97-4.77-3.2-1.49-1.07-3.06-2.28-4.64-3.59-7.69-6.34-14.76-14.34-21.2-23.93h-.04l-.07-.1h.03c-1.57-2.37-3.09-4.75-4.53-7.15-1.38-2.31-2.77-4.78-4.18-7.41-6.88-12.87-12.3-26.84-16.27-41.82-2.76-10.48-4.85-21.51-6.21-33.06-1.37-11.59-2.06-23.73-2.06-36.39,0-10.09.47-20.22,1.41-30.37.94-10.14,2.33-19.84,4.14-29.09v-.04l.03-.17h0c.47-2.38,1.03-4.97,1.68-7.84.53-2.33,1.17-4.9,1.89-7.68,3.44-13.16,7.78-25.51,12.99-37.07l.04-.08.03-.07h.01c1.35-2.95,2.69-5.7,3.98-8.21,1.38-2.68,2.8-5.27,4.21-7.72,7.52-12.99,16.02-23.61,25.47-31.8l.04-.04c6.81-5.86,13.88-10.28,21.22-13.25,7.56-3.07,15.36-4.61,23.37-4.61h.12v.04c6.01.01,12.03.9,18.04,2.67v.02c2.01.59,3.99,1.27,5.91,2,3.88,1.51,7.83,3.42,11.8,5.69,4.51,2.59,8.33,4.75,11.41,6.43l.22-.37c1.01-1.77,1.95-4.01,2.76-6.66l2.12-6.86h25.12l.21,9.52,2.11,96.65.22,9.89h-27.7l-1.41-8.04-.03-.19c-.68-3.83-1.34-7.12-1.94-9.87-.62-2.82-1.38-5.88-2.26-9.17-3.94-14.68-8.97-26.31-15.05-34.86v-.04c-3.88-5.48-8.13-9.55-12.7-12.19-4.23-2.45-8.9-3.66-13.99-3.66h-.06v-.04c-7.31,0-13.99,2.49-20,7.45-.97.81-1.99,1.73-3,2.75l-.04.04c-5.42,5.41-10.39,13-14.87,22.75l-.07.14c-1.56,3.4-3.01,6.93-4.32,10.54-1.32,3.65-2.56,7.53-3.7,11.62h0c-5.86,20.98-8.81,46.42-8.81,76.28h-.03c0,19.8,1.49,37.66,4.46,53.56,2.91,15.57,7.26,29.18,12.99,40.83h-.01s.01.02.01.02l.04.04c1.66,3.35,3.29,6.32,4.89,8.88h.04c1.66,2.67,3.4,5.11,5.16,7.3,8.44,10.43,18.34,15.64,29.66,15.64,4.51,0,8.79-.93,12.84-2.78,4.29-1.96,8.48-5.01,12.56-9.13v-.04l.04-.04h.02c1.25-1.26,2.43-2.55,3.5-3.83,1.2-1.42,2.4-2.96,3.58-4.58,9.72-18.65,10.55-32.52,9.76-54.87l31.65.04h0ZM794.81,898.43h89.17c49.05,0,89.17,41.67,89.17,92.6v164.89c0,50.93-40.12,92.61-89.17,92.61h-89.17v-41.68l30.41-.04c.16-90.89.34-174.63.51-265.5h-30.91v-42.87h0ZM879.23,943.68h21.4c11.78,0,21.41,12.31,21.41,27.35v206.09c0,15.04-9.63,27.34-21.41,27.34h-21.4v-260.79h0ZM1369.47,773.15c-77.59-77.59-184.79-125.58-303.18-125.58s-225.6,48-303.18,125.58c-77.59,77.58-125.58,184.78-125.58,303.18s48,225.59,125.58,303.18c77.58,77.59,184.78,125.58,303.18,125.58s225.59-47.99,303.18-125.58c77.59-77.59,125.58-184.78,125.58-303.18s-48-225.6-125.58-303.18h0ZM1753.46,964.46l-166.68,165.12c-24.51,249.35-223.97,447.31-473.97,469.55l-226.62,224.5c-5.18-2.33-10.41-4.58-15.69-6.75-85.52-35.17-163.3-42.46-239.62-49.6-19.42-1.82-38.74-3.62-57.96-5.94l231.88-229.71c-77.65-44.76-142.72-108.88-188.65-185.75l-305.39,302.54c-53.37-49.72-91.86-112.2-113.16-180.4-6.65-21.32-11.63-43.19-14.87-65.41l360.63-357.26c16.19-264.92,229.39-476.62,494.97-490.36l234.31-232.11c105.21-18.88,206.83-52.4,299.08-100.56l88.51,89.23-322.07,319.06c76.41,46.63,139.9,112.3,183.94,190.41l97.98-97.06c14.4,59.88,38.89,115.65,70.94,164.53,19.31,29.43,40.48,53.61,62.43,75.99h0ZM1273.91,1812.16l645.67-639.64c1.6,3.73,3.13,7.48,4.61,11.22,37.09,93.99,38.91,194.13,10.77,284.25-28.04,89.82-85.93,169.74-168.33,223.63-23.51,15.38-48.89,28.6-75.95,39.28-62.06,24.48-124.97,30.37-189,36.37-72.79,6.8-146.9,13.75-227.78,44.89h0ZM878.44,326.02l-357.35,354.02c4.4-28.89,6.46-58.52,5.9-88.64-1.58-85.59-24.13-174.74-73.59-260.79l107.44-108.32c97.65,50.98,205.81,85.55,317.59,103.72h0ZM993.73,2090.27c-29.75-30.13-59.49-57.16-90.21-79.9-28.92-21.41-58.94-39.19-91.03-52.39-64.66-26.6-130.63-32.77-195.37-38.83-75.68-7.08-150.04-14.05-230.86-45.94-37.55-14.82-72.3-32.87-104.05-53.63-112.87-73.82-192.13-183.21-230.52-306.15-38.21-122.37-35.82-258.13,14.36-385.31,14.79-37.5,33.49-73.94,56.23-108.72,35.47-54.23,74.52-91.4,113.09-128.11,28.65-27.27,56.99-54.24,78.19-86.56,39.05-59.54,62.36-133.15,60.93-210.95-1.28-69.44-22.48-142.98-70.02-213.89l-46.37-69.16L534.76,31.85l68,39.28c134.89,77.93,298.71,116.9,463.52,116.9s328.63-38.97,463.52-116.9l68.01-39.28,276.65,278.9-46.37,69.16c-47.54,70.91-68.74,144.45-70.02,213.89-1.43,77.8,21.87,151.4,60.93,210.95,21.2,32.32,49.54,59.29,78.19,86.56,38.58,36.71,77.62,73.87,113.09,128.11,22.74,34.77,41.44,71.21,56.23,108.72,50.18,127.19,52.57,262.94,14.36,385.31-38.38,122.93-117.65,232.33-230.52,306.15-31.75,20.77-66.5,38.82-104.05,53.63-80.83,31.89-155.18,38.85-230.86,45.94-64.74,6.06-130.71,12.23-195.37,38.83-32.09,13.19-62.12,30.98-91.03,52.39-30.71,22.73-60.46,49.76-90.21,79.9l-72.54,73.51-72.56-73.51h0ZM1017.92,2066.49c-30.9-31.31-61.93-59.48-94.19-83.35-31.07-23-63.48-42.17-98.35-56.5-69.31-28.51-137.9-34.93-205.2-41.23-73.09-6.84-144.9-13.57-221.55-43.81-35.23-13.9-67.89-30.88-97.81-50.44-106.1-69.39-180.61-172.24-216.7-287.81-35.97-115.2-33.7-243.04,13.57-362.85,13.9-35.25,31.54-69.59,53.04-102.47,33.44-51.12,70.96-86.85,108.05-122.13,30.16-28.71,59.99-57.1,83.24-92.54,42.55-64.87,67.93-145.15,66.38-230.09-1.39-75.67-24.32-155.55-75.74-232.23l-30.91-46.1,238.68-240.62,45.33,26.19c140.26,81.03,310.06,121.56,480.53,121.56s340.28-40.53,480.53-121.56l45.34-26.19,238.68,240.62-30.92,46.1c-51.41,76.68-74.34,156.56-75.74,232.23-1.56,84.94,23.83,165.22,66.38,230.09,23.25,35.45,53.08,63.83,83.24,92.54,37.08,35.29,74.61,71.01,108.05,122.13,21.5,32.88,39.14,67.22,53.04,102.47,47.27,119.81,49.54,247.65,13.57,362.85-36.08,115.58-110.6,218.43-216.7,287.81-29.92,19.56-62.58,36.54-97.81,50.44-76.65,30.24-148.47,36.97-221.55,43.81-67.3,6.29-135.89,12.72-205.2,41.23-34.86,14.33-67.28,33.5-98.35,56.5-32.26,23.88-63.29,52.05-94.19,83.35l-48.36,49.01-48.37-49.01h0Z"/></svg>