<svg xmlns="http://www.w3.org/2000/svg" viewBox="0 0 96 112" role="img" aria-label="FC Cascavel-PR">
  <defs>
    <linearGradient id="shield" x1="0" x2="1" y1="0" y2="1">
      <stop offset="0" stop-color="#1b8f3a"/>
      <stop offset="1" stop-color="#f6c13a"/>
    </linearGradient>
    <linearGradient id="shine" x1="0" x2="0" y1="0" y2="1">
      <stop offset="0" stop-color="#ffffff" stop-opacity=".42"/>
      <stop offset=".42" stop-color="#ffffff" stop-opacity=".08"/>
      <stop offset="1" stop-color="#ffffff" stop-opacity="0"/>
    </linearGradient>
    <filter id="shadow" x="-20%" y="-20%" width="140%" height="150%">
      <feDropShadow dx="0" dy="4" stdDeviation="4" flood-color="#000000" flood-opacity=".34"/>
    </filter>
  </defs>
  <rect width="96" height="112" fill="none"/>
  <path filter="url(#shadow)" d="M48 5 84 18v29c0 25-14 43-36 56C26 90 12 72 12 47V18Z" fill="#f4f7f8"/>
  <path d="M48 11 78 22v25c0 21-11 36-30 47C29 83 18 68 18 47V22Z" fill="#0a1115"/>
  <path d="M48 17 72 26v20c0 17-8 29-24 39C32 75 24 63 24 46V26Z" fill="url(#shield)"/>
  <path d="M25 27 48 18l23 9v12c-14-8-31-8-46 0Z" fill="url(#shine)"/>
  <path d="M25 67h46M48 67v19M34 67a14 14 0 0 1 28 0M33 29h30v16H33zM44 29v8h8v-8" fill="none" stroke="#ffffff" stroke-width="3" stroke-linecap="round" stroke-linejoin="round" opacity=".64"/>
  <circle cx="48" cy="49" r="3" fill="#ffffff" opacity=".72"/>
  <text x="48" y="61" text-anchor="middle" font-family="Arial Black, Impact, Arial, sans-serif" font-size="22" font-weight="900" fill="#ffffff" stroke="#071018" stroke-width="1" letter-spacing="0">CP</text>
  <rect x="27" y="73" width="42" height="12" rx="6" fill="#071018" opacity=".8"/>
  <text x="48" y="82" text-anchor="middle" font-family="Arial, sans-serif" font-size="8" font-weight="900" fill="#ffffff">SD</text>
</svg>
